<?xml version="1.0" encoding="UTF-8" standalone="no"?>
<!-- Created with Inkscape (http://www.inkscape.org/) -->

<svg
   width="50.185596mm"
   height="56.811649mm"
   viewBox="0 0 50.185596 56.811649"
   version="1.1"
   id="svg1"
   xml:space="preserve"
   xmlns="http://www.w3.org/2000/svg"
   xmlns:svg="http://www.w3.org/2000/svg"><defs
     id="defs1" /><g
     id="layer1"
     transform="translate(-18.941321,-186.38668)"><path
       id="path5"
       style="fill:#ffffff;stroke:none"
       d="m 43.745648,196.86107 c -0.59515,0.0454 -0.53332,0.54584 -0.6075,1.02516 -0.13978,0.90313 -0.44662,1.85623 -0.76972,2.70935 -1.18808,3.137 -2.74766,6.05049 -4.9021,8.64062 -0.49993,0.60103 -0.99961,1.20694 -1.55582,1.75714 -0.21229,0.20999 -0.47392,0.53354 -0.80548,0.50794 -1.27708,-0.0986 -2.21702,-1.82477 -3.00333,-2.6312 -0.33695,-0.34558 -0.86777,-0.71025 -0.83119,-1.24484 0.0828,-1.21066 1.05906,-2.0594 1.81979,-2.90812 0.67266,-0.75044 1.25939,-1.59202 1.80544,-2.43735 1.5817,-2.4486 2.81629,-5.26611 3.41031,-8.12805 0.59305,-2.85728 0.3887,-6.49802 3.82864,-7.55066 0.57583,-0.1762 1.15674,-0.23467 1.75741,-0.20837 4.366528,0.1912 4.852158,4.83831 5.436998,8.19839 0.1781,1.02324 0.45492,2.04356 0.57117,3.07548 0.0422,0.37444 0.17757,0.82517 -0.10012,1.13946 -0.75872,0.85873 -1.68079,1.58729 -2.44164,2.46102 -0.23599,0.27099 -0.587208,0.89901 -0.976678,0.94527 -0.43782,0.052 -0.82422,-0.80116 -1.01109,-1.10415 -0.74895,-1.2143 -1.50721,-2.80386 -1.62509,-4.24709 m -17.50093,4.83289 c 0.002,3.39713 2.48349,6.10608 4.53412,8.5674 3.28946,3.94828 6.51389,7.92801 9.22761,12.30191 1.03975,1.67583 1.97997,3.45883 2.75596,5.27225 0.35931,0.83966 0.63101,2.21187 1.27614,2.8558 0.3556,-1.56927 1.47152,-3.23716 2.1779,-4.68645 2.849778,-5.84688 7.164588,-10.49968 11.301488,-15.4506 1.56129,-1.86851 3.14175,-3.83086 4.12579,-6.07773 0.24339,-0.55575 0.84705,-1.7835 0.64457,-2.39972 -0.13918,-0.42353 -1.02814,-0.2129 -1.33463,-0.14775 -1.34431,0.28577 -2.49152,1.10879 -3.51483,1.9928 -0.2975,0.257 -0.94706,0.70712 -0.94623,1.14047 9.6e-4,0.49942 0.66389,1.10841 0.41761,1.59006 -0.21375,0.418 -0.75216,0.789 -1.08234,1.11929 -0.65021,0.65042 -1.24338,1.34427 -1.85545,2.02941 -0.22046,0.24679 -0.62183,0.9286 -1.00064,0.87826 -0.33779,-0.0449 -0.65449,-0.48603 -0.87836,-0.7109 -0.74392,-0.74723 -1.42713,-1.57353 -2.05964,-2.41644 -0.44857,-0.59779 -1.7145,-1.77036 -1.67464,-2.5629 0.0226,-0.44886 0.4914,-0.95869 0.73203,-1.31806 0.73391,-1.0961 1.54723,-2.08802 2.49249,-3.00881 2.75649,-2.6851 6.22392,-5.24306 10.17549,-5.61939 3.38307,-0.32218 6.92464,1.83321 7.16956,5.40627 0.21116,3.08049 -1.23638,6.1771 -2.84535,8.71385 -3.2348,5.1001 -7.88608,9.08536 -11.06725,14.20577 -2.2171,3.56865 -4.08005,7.3719 -5.23512,11.4232 -0.70708,2.48003 -0.66869,5.71234 -2.819978,7.46607 -2.21677,1.80713 -5.43862,0.82652 -6.9236,-1.38834 -0.99078,-1.47774 -0.87458,-3.77699 -1.25755,-5.49192 -0.55594,-2.48944 -1.61331,-4.77685 -2.43001,-7.17612 -2.01227,1.41726 -3.65565,3.17981 -5.85805,4.37094 -1.38052,0.74663 -2.96185,1.26867 -4.53999,1.33778 -0.92713,0.0406 -1.90168,-0.067 -2.78257,-0.36901 -0.71642,-0.24562 -1.38591,-0.60486 -1.97709,-1.07855 -4.1064,-3.29026 -1.80421,-8.71761 0.66931,-12.16952 0.55201,-0.77036 1.12255,-1.53005 1.71425,-2.27 0.23807,-0.29772 0.48614,-0.77812 0.84124,-0.94702 0.36872,-0.17536 1.006,0.1294 1.31518,0.32816 0.76379,0.49102 1.29576,1.31035 1.86912,1.99771 0.25897,0.31047 0.644,0.64945 0.75622,1.05003 0.32958,1.17654 -0.70445,2.39741 -1.30524,3.28272 -0.68654,1.01166 -0.97635,1.86407 -0.88074,3.07548 1.69922,-0.0351 3.26078,-0.88309 4.53999,-1.93783 0.82503,-0.68026 1.36364,-1.72345 2.48967,-1.72345 -0.70804,-1.2705 -1.71834,-2.43415 -2.59929,-3.58806 -2.53618,-3.32203 -5.37773,-6.38281 -7.77824,-9.81224 -1.71815,-2.45459 -3.32028,-5.22964 -3.52879,-8.27449 -0.0487,-0.71126 0.028,-1.51473 0.23861,-2.19677 1.47732,-4.78353 7.18616,-4.97966 10.95836,-3.09356 0.79534,0.39767 1.54668,0.86161 2.27,1.37852 0.26883,0.19211 0.64739,0.38806 0.80316,0.69276 0.29467,0.57638 -0.35954,1.73885 -0.59371,2.26711 -0.29907,0.67466 -0.81989,2.25148 -1.46988,2.63409 -0.47533,0.27979 -1.31156,-0.13414 -1.74183,-0.34624 -1.23836,-0.61043 -2.08725,-1.14807 -3.51483,-1.11624 m 35.807338,25.1164 c -10e-4,-1.59448 -0.71518,-3.01343 -1.6842,-4.24709 -0.3332,-0.4242 -1.5669,-1.37831 -1.54017,-1.90387 0.0197,-0.38639 0.47838,-0.81414 0.70543,-1.09838 0.67808,-0.84888 1.39971,-1.64321 2.18677,-2.39215 0.2534,-0.24113 0.74008,-0.84482 1.1376,-0.71683 0.34596,0.11139 0.69661,0.52214 0.95227,0.7687 0.79264,0.76442 1.47481,1.66541 2.11292,2.55996 2.52286,3.53666 5.35979,9.83792 0.7426,13.09207 -2.9997,2.11416 -7.23907,0.86814 -10.03192,-0.98549 -0.76979,-0.51091 -1.70074,-1.09716 -2.2496,-1.85607 -0.87671,-1.21223 0.98049,-3.02175 1.61769,-3.87988 0.22829,-0.30746 0.4913,-0.93162 0.85842,-1.08285 0.50948,-0.20987 1.49945,0.55141 1.89703,0.81593 1.06642,0.70951 2.00643,1.08882 3.29516,0.92595 z" /></g></svg>
